<svg width="182" height="137" viewBox="0 0 182 137" fill="none" xmlns="http://www.w3.org/2000/svg">
<path d="M4.49707 36.6328L2.10938 38.918C1.88477 38.1562 1.77246 37.4092 1.77246 36.6768C1.77246 33.9912 2.89062 31.8184 5.12695 30.1582C6.79688 28.918 9.09668 28.2979 12.0264 28.2979H23.2178C24.1162 26.4521 25.3467 24.9531 26.9092 23.8008C28.4814 22.6387 30.0684 22.0576 31.6699 22.0576C32.1582 22.0576 32.627 22.1113 33.0762 22.2188L30.9229 24.3281C30.3662 24.1621 29.8438 24.0791 29.3555 24.0791C26.4453 24.0791 24.7363 26.3447 24.2285 30.876L23.2324 39.9141C24.375 38.1953 25.6299 36.7793 26.9971 35.666C28.374 34.543 29.5459 33.9814 30.5127 33.9814C31.4697 33.9814 31.9482 34.6455 31.9482 35.9736C31.9482 36.3545 31.8896 36.9502 31.7725 37.7607L30.9814 43.2246C30.8252 44.3086 30.7471 45.1729 30.7471 45.8174C30.7471 46.3252 30.8887 46.5791 31.1719 46.5791C31.8555 46.5791 32.6807 45.6807 33.6475 43.8838C33.8818 44.0303 33.999 44.1816 33.999 44.3379C33.999 44.9824 33.4521 45.8174 32.3584 46.8428C31.2744 47.8682 30.3955 48.3809 29.7217 48.3809C28.9502 48.3809 28.5645 47.8291 28.5645 46.7256C28.5645 45.9346 28.667 44.8311 28.8721 43.415L29.3848 39.8701C29.5508 38.708 29.6338 37.7852 29.6338 37.1016C29.6338 36.3496 29.3652 35.9736 28.8281 35.9736C27.5781 35.9736 26.3086 36.8232 25.0195 38.5225C23.7402 40.2217 22.9932 42.0381 22.7783 43.9717L22.3828 47.4873L20.2148 48.3809L20.2588 47.9707L20.376 46.8867L20.4932 45.8613L21.9141 33.0293C22.0215 32.0234 22.2217 31.0371 22.5146 30.0703H14.7949L13.6963 39.9727L13.5205 41.5986C13.3545 42.9854 13.0518 43.9863 12.6123 44.6016C12.1826 45.2168 11.3477 45.8174 10.1074 46.4033L14.3701 46.623L12.6123 48.3223L5.46387 48L7.35352 46.1836L8.9502 46.3594C10.1318 45.6074 10.8643 44.0693 11.1475 41.7451L11.2939 40.3242L12.4365 30.0703H9.94629C5.85449 30.0703 3.80859 31.4229 3.80859 34.1279C3.80859 34.9482 4.03809 35.7832 4.49707 36.6328ZM44.2676 43.3418C44.5117 43.5078 44.6338 43.7031 44.6338 43.9277C44.6338 44.2305 44.3213 44.748 43.6963 45.4805C42.0264 47.4141 40.376 48.3809 38.7451 48.3809C37.749 48.3809 36.9287 47.9854 36.2842 47.1943C35.6396 46.4033 35.3174 45.3926 35.3174 44.1621C35.3174 41.9355 36.1572 39.6846 37.8369 37.4092C39.5264 35.124 41.1963 33.9814 42.8467 33.9814C44.0381 33.9814 44.6338 34.6211 44.6338 35.9004C44.6338 37.3359 43.9355 38.7373 42.5391 40.1045C41.1523 41.4717 39.458 42.4238 37.4561 42.9609C37.6514 45.3145 38.5791 46.4912 40.2393 46.4912C41.8799 46.4912 43.2227 45.4414 44.2676 43.3418ZM37.5146 41.1738C37.7979 41.2715 38.0566 41.3203 38.291 41.3203C39.502 41.3203 40.5615 40.9492 41.4697 40.207C42.3779 39.4648 42.832 38.5957 42.832 37.5996C42.832 36.457 42.251 35.8857 41.0889 35.8857C40.249 35.8857 39.4873 36.3887 38.8037 37.3945C38.1299 38.3906 37.7002 39.6504 37.5146 41.1738Z" fill="black"/>
<path d="M5.44922 136.344C4.47266 135.523 3.98438 134.684 3.98438 133.824C3.98438 132.613 4.92188 130.836 6.79688 128.492L9.60938 125.035L59.9414 64.8594C58.2227 65.1719 56.7773 65.3281 55.6055 65.3281C51.7773 65.3281 47.0508 64.293 41.4258 62.2227L38.7305 61.2266L36.3281 60.3477C34.4141 59.6445 32.3438 59.293 30.1172 59.293C24.375 59.293 21.5039 63.7266 21.5039 72.5938C21.5039 73.8047 21.6406 75.2109 21.9141 76.8125L12.6562 82.6719C12.6172 81.6562 12.5977 80.9336 12.5977 80.5039C12.5977 73.0039 15.1953 66.5195 20.3906 61.0508C25.5859 55.582 31.7578 52.8477 38.9062 52.8477C41.4453 52.8477 44.6484 53.375 48.5156 54.4297L50.9766 55.1328C54.2969 56.0312 57.3438 56.4805 60.1172 56.4805C65.3906 56.4805 69.1797 55.2695 71.4844 52.8477C72.4609 53.6289 72.9492 54.4492 72.9492 55.3086C72.9492 56.4023 71.875 58.1211 69.7266 60.4648C69.2578 60.9727 68.2422 62.1641 66.6797 64.0391L16.6406 124.449C19.1406 124.176 21.3477 124.039 23.2617 124.039C25.2539 124.039 28.1641 124.312 31.9922 124.859L36.4453 125.504L44.0625 126.793C48.0469 127.496 51.4062 127.848 54.1406 127.848C61.0156 127.848 65.3906 125.23 67.2656 119.996C68.7109 120.426 69.4336 121.012 69.4336 121.754C69.4336 123.238 68.2617 125.66 65.918 129.02C62.5586 133.902 58.125 136.344 52.6172 136.344C50.8594 136.344 47.6172 136.031 42.8906 135.406L37.5 134.703L31.7578 133.941C28.2422 133.434 24.8633 133.18 21.6211 133.18C16.1133 133.18 10.7227 134.234 5.44922 136.344ZM90 135.523C81.2109 135.523 76.8164 129.703 76.8164 118.062C76.8164 108.688 80.2539 99.6641 87.1289 90.9922C94.0039 82.2812 101.133 77.9258 108.516 77.9258C117.422 77.9258 121.875 83.7461 121.875 95.3867C121.875 104.801 118.438 113.844 111.562 122.516C104.688 131.188 97.5 135.523 90 135.523ZM97.0898 128.961C101.582 128.961 105.332 126.461 108.34 121.461C111.387 116.461 112.91 110.23 112.91 102.77C112.91 90.582 109.121 84.4883 101.543 84.4883C97.0898 84.4883 93.3398 87.0078 90.293 92.0469C87.2852 97.0469 85.7812 103.258 85.7812 110.68C85.7812 122.867 89.5508 128.961 97.0898 128.961ZM141.445 135.523C132.656 135.523 128.262 129.703 128.262 118.062C128.262 108.688 131.699 99.6641 138.574 90.9922C145.449 82.2812 152.578 77.9258 159.961 77.9258C168.867 77.9258 173.32 83.7461 173.32 95.3867C173.32 104.801 169.883 113.844 163.008 122.516C156.133 131.188 148.945 135.523 141.445 135.523ZM148.535 128.961C153.027 128.961 156.777 126.461 159.785 121.461C162.832 116.461 164.355 110.23 164.355 102.77C164.355 90.582 160.566 84.4883 152.988 84.4883C148.535 84.4883 144.785 87.0078 141.738 92.0469C138.73 97.0469 137.227 103.258 137.227 110.68C137.227 122.867 140.996 128.961 148.535 128.961Z" fill="black"/>
<path d="M159.784 115.376C159.413 115.025 159.042 114.672 158.654 114.34C158.281 114.019 157.902 113.701 157.496 113.424C157.16 113.195 156.781 113.03 156.422 112.834C156.239 112.735 156.054 112.638 155.876 112.53C155.676 112.408 155.506 112.255 155.374 112.053C155.066 111.582 154.65 111.22 154.167 110.94C153.852 110.757 153.521 110.601 153.199 110.43C153.121 110.388 153.05 110.334 152.983 110.272C153.248 110.219 153.483 110.276 153.702 110.428C153.6 110.139 153.343 109.998 153.12 109.827C153.123 109.815 153.127 109.802 153.13 109.79C153.322 109.828 153.514 109.866 153.7 109.903C153.676 109.812 153.604 109.714 153.431 109.598C152.807 109.177 152.125 108.952 151.366 109.012C151.097 109.033 150.826 109.059 150.564 109.12C150.018 109.248 149.475 109.396 148.934 109.546C148.821 109.578 148.717 109.65 148.618 109.718C148.084 110.082 147.545 110.44 147.023 110.822C146.551 111.166 146.203 111.627 145.882 112.112C145.432 112.793 145.298 113.54 145.374 114.34C145.402 114.634 145.41 114.93 145.433 115.225C145.474 115.744 145.237 116.119 144.805 116.365C144.37 116.612 143.911 116.623 143.463 116.385C143.193 116.241 143.024 116.002 142.911 115.725C142.671 115.14 142.639 114.541 142.874 113.953C143.103 113.381 143.367 112.823 143.617 112.259C143.924 111.568 144.243 110.882 144.476 110.161C144.682 109.525 144.691 108.9 144.443 108.274C144.246 107.776 143.911 107.427 143.403 107.246C142.725 107.005 142.033 106.947 141.32 107.046C140.836 107.113 140.486 107.358 140.238 107.764C140.128 107.945 140.017 108.128 139.93 108.32C139.762 108.69 139.553 109.036 139.334 109.377C139.275 109.469 139.225 109.568 139.164 109.659C138.974 109.94 138.957 110.243 139.073 110.549C139.214 110.917 139.361 111.284 139.532 111.639C139.628 111.837 139.773 112.011 139.904 112.191C139.935 112.233 139.996 112.253 140.044 112.283C140.073 112.232 140.124 112.183 140.128 112.13C140.14 111.963 140.154 111.792 140.131 111.627C140.048 111.028 140.22 110.497 140.512 109.985C140.623 109.79 140.758 109.648 140.967 109.569C141.131 109.506 141.287 109.423 141.452 109.365C141.776 109.251 142.014 109.031 142.221 108.77C142.292 108.681 142.361 108.592 142.431 108.503C142.515 108.395 142.629 108.345 142.763 108.337C143.009 108.323 143.233 108.399 143.443 108.517C143.599 108.606 143.647 108.762 143.653 108.928C143.666 109.277 143.64 109.62 143.523 109.955C143.332 110.5 143.108 111.029 142.857 111.55C142.43 112.434 142.036 113.334 141.726 114.268C141.553 114.789 141.571 115.321 141.668 115.851C141.717 116.115 141.782 116.382 141.886 116.628C142.093 117.119 142.482 117.447 142.959 117.657C143.878 118.064 144.8 118.032 145.708 117.616C146.152 117.413 146.493 117.076 146.815 116.718C147.033 116.476 147.272 116.256 147.603 116.191C147.795 116.153 147.994 116.145 148.19 116.138C148.32 116.133 148.429 116.21 148.489 116.317C148.605 116.526 148.723 116.738 148.804 116.963C148.975 117.44 149.05 117.94 149.09 118.443C149.143 119.102 149.192 119.763 149.214 120.423C149.227 120.794 149.199 121.168 149.163 121.538C149.134 121.843 149.17 122.14 149.241 122.429C149.388 123.032 149.403 123.643 149.42 124.256C149.44 124.954 149.465 125.651 149.491 126.348C149.522 127.228 149.558 128.108 149.589 128.988C149.593 129.115 149.588 129.243 149.579 129.371C149.572 129.464 149.516 129.499 149.418 129.511C148.914 129.573 148.411 129.641 147.909 129.714C147.869 129.72 147.834 129.732 147.803 129.747C147.55 129.757 147.298 129.767 147.045 129.777C146.866 129.784 146.716 129.921 146.716 130.106C146.716 130.221 146.782 130.33 146.878 130.389C146.916 130.508 147.016 130.604 147.178 130.604C147.655 130.606 148.132 130.608 148.608 130.609C148.757 130.652 148.92 130.683 149.068 130.662C149.315 130.627 149.566 130.567 149.795 130.47C150.271 130.267 150.41 129.601 150.083 129.2C150.044 129.153 150.018 129.083 150.015 129.022C149.996 128.584 149.989 128.146 149.969 127.708C149.926 126.796 149.868 125.884 149.834 124.972C149.811 124.37 149.811 123.766 149.817 123.164C149.818 122.992 149.886 122.822 149.909 122.649C149.943 122.386 149.976 122.122 149.989 121.857C150.014 121.335 149.935 120.826 149.813 120.317C149.799 120.256 149.787 120.194 149.776 120.131C149.881 120.272 149.995 120.405 150.121 120.53C150.208 120.616 150.334 120.644 150.446 120.612C150.485 120.606 150.524 120.593 150.563 120.571C150.709 120.485 150.783 120.268 150.681 120.121C150.552 119.934 150.466 119.707 150.452 119.526C150.447 119.458 150.444 119.39 150.448 119.322C150.45 119.29 150.452 119.257 150.455 119.225C150.456 119.22 150.457 119.214 150.458 119.206C150.479 119.094 150.511 118.986 150.555 118.88C150.572 118.839 150.576 118.795 150.57 118.752C150.707 118.714 150.847 118.68 150.984 118.644C151.28 118.564 151.576 118.485 151.871 118.406C152.975 118.11 154.078 117.814 155.181 117.518C155.237 117.534 155.298 117.536 155.358 117.519C155.523 117.471 155.688 117.423 155.853 117.375C155.904 117.406 155.964 117.423 156.024 117.423H156.057C156.144 117.423 156.228 117.388 156.29 117.327C156.351 117.265 156.386 117.181 156.386 117.094C156.386 117.07 156.383 117.046 156.378 117.022C156.378 116.936 156.356 116.849 156.305 116.779C156.26 116.718 156.211 116.656 156.141 116.623C156.058 116.583 156.018 116.572 155.926 116.564C155.914 116.563 155.901 116.564 155.888 116.565C155.626 116.41 155.363 116.255 155.1 116.1C155.322 116.021 155.545 115.947 155.771 115.885C157.405 115.429 158.969 115.613 160.44 116.477C160.505 116.515 160.567 116.558 160.631 116.598C160.641 116.592 160.651 116.585 160.661 116.578C160.605 116.454 160.56 116.324 160.493 116.207C160.309 115.886 160.05 115.626 159.784 115.376ZM151.231 117.896C150.897 117.985 150.559 118.066 150.228 118.167C150.009 118.233 149.767 118.323 149.586 118.476C149.55 118.158 149.513 117.841 149.478 117.523C149.46 117.367 149.444 117.211 149.439 117.054C149.434 116.88 149.501 116.811 149.675 116.812C149.89 116.812 150.106 116.837 150.321 116.829C150.798 116.812 151.275 116.785 151.752 116.752C152.116 116.728 152.479 116.687 152.844 116.657C152.882 116.654 154.184 116.515 154.071 116.477C154.148 116.45 154.225 116.422 154.302 116.394C154.565 116.549 154.829 116.704 155.092 116.859C153.805 117.205 152.518 117.55 151.231 117.896Z" fill="black"/>
</svg>
